<svg width="65" height="65" viewBox="0 0 65 65" fill="none" xmlns="http://www.w3.org/2000/svg">
<rect width="65" height="65" rx="10" fill="black"/>
<mask id="mask0_3_94" style="mask-type:luminance" maskUnits="userSpaceOnUse" x="11" y="13" width="44" height="40">
<path d="M14 15H48C48 15 52 17 52 22C52 27 48 29 48 29H14C14 29 18 27 18 22C18 17 14 15 14 15ZM52 37H18C18 37 14 39 14 44C14 49 18 51 18 51H52C52 51 48 49 48 44C48 39 52 37 52 37Z" fill="white" stroke="white" stroke-width="4" stroke-linecap="round" stroke-linejoin="round"/>
</mask>
<g mask="url(#mask0_3_94)">
<path d="M9 9H57V57H9V9Z" fill="white"/>
</g>
</svg>
