<svg width="318" height="92" viewBox="0 0 318 92" fill="none" xmlns="http://www.w3.org/2000/svg">
<rect width="318" height="92" fill="white"/>
<path d="M105.28 60.48H99.36L90.04 45.44V60.48H84.8V33H90.04V45.12L98.72 33H105.28L95.68 44.96L105.28 60.48ZM127.987 60.48H108.067L115.347 33H120.707L127.987 60.48ZM121.107 55.88L118.027 43.4L114.947 55.84L121.107 55.88ZM154.315 60.48H149.075L138.595 42.92V60.48H133.355V33H138.595L149.075 50.8V33H154.315V60.48ZM174.069 60.48H161.909V33H174.269C176.296 33 178.003 33.6133 179.389 34.84C180.909 36.2267 181.669 37.92 181.669 39.92C181.669 40.9333 181.416 41.9067 180.909 42.84C180.403 43.7467 179.509 44.44 178.229 44.92C179.803 45.6133 181.056 46.6133 181.989 47.92C182.949 49.2267 183.429 50.68 183.429 52.28C183.429 54.5467 182.509 56.48 180.669 58.08C178.856 59.68 176.656 60.48 174.069 60.48ZM173.029 43.04C173.883 43.04 174.616 42.7733 175.229 42.24C175.843 41.7067 176.149 41.0667 176.149 40.32C176.149 39.5467 175.843 38.8933 175.229 38.36C174.616 37.8267 173.883 37.56 173.029 37.56H167.389V43.04H173.029ZM172.389 55.88C173.829 55.88 175.056 55.44 176.069 54.56C177.083 53.6533 177.589 52.5733 177.589 51.32C177.589 50.0667 177.083 48.9867 176.069 48.08C175.056 47.1733 173.829 46.72 172.389 46.72H167.389V55.88H172.389ZM207.128 60.48H187.208L194.488 33H199.848L207.128 60.48ZM200.248 55.88L197.168 43.4L194.088 55.84L200.248 55.88ZM233.455 60.48H228.215L217.735 42.92V60.48H212.495V33H217.735L228.215 50.8V33H233.455V60.48ZM253.21 60.48H241.05V33H253.41C255.437 33 257.143 33.6133 258.53 34.84C260.05 36.2267 260.81 37.92 260.81 39.92C260.81 40.9333 260.557 41.9067 260.05 42.84C259.543 43.7467 258.65 44.44 257.37 44.92C258.943 45.6133 260.197 46.6133 261.13 47.92C262.09 49.2267 262.57 50.68 262.57 52.28C262.57 54.5467 261.65 56.48 259.81 58.08C257.997 59.68 255.797 60.48 253.21 60.48ZM252.17 43.04C253.023 43.04 253.757 42.7733 254.37 42.24C254.983 41.7067 255.29 41.0667 255.29 40.32C255.29 39.5467 254.983 38.8933 254.37 38.36C253.757 37.8267 253.023 37.56 252.17 37.56H246.53V43.04H252.17ZM251.53 55.88C252.97 55.88 254.197 55.44 255.21 54.56C256.223 53.6533 256.73 52.5733 256.73 51.32C256.73 50.0667 256.223 48.9867 255.21 48.08C254.197 47.1733 252.97 46.72 251.53 46.72H246.53V55.88H251.53ZM279.383 61C275.97 61 273.303 60.2133 271.383 58.64C269.49 57.0667 268.543 54.7867 268.543 51.8V33H273.783V51.64C273.783 54.7067 275.65 56.2933 279.383 56.4C281.41 56.4 282.863 55.9467 283.743 55.04C284.623 54.1333 285.063 53 285.063 51.64V33H290.303V51.8C290.303 53.5333 289.93 55.1067 289.183 56.52C288.437 57.9067 287.263 59 285.663 59.8C284.063 60.6 281.97 61 279.383 61Z" fill="black"/>
<mask id="mask0_3_82" style="mask-type:luminance" maskUnits="userSpaceOnUse" x="21" y="22" width="51" height="47">
<path d="M24 24H64.2632C64.2632 24 69 26.3889 69 32.3611C69 38.3333 64.2632 40.7222 64.2632 40.7222H24C24 40.7222 28.7368 38.3333 28.7368 32.3611C28.7368 26.3889 24 24 24 24ZM69 50.2778H28.7368C28.7368 50.2778 24 52.6667 24 58.6389C24 64.6111 28.7368 67 28.7368 67H69C69 67 64.2632 64.6111 64.2632 58.6389C64.2632 52.6667 69 50.2778 69 50.2778Z" fill="#090909" stroke="white" stroke-width="4" stroke-linecap="round" stroke-linejoin="round"/>
</mask>
<g mask="url(#mask0_3_82)">
<path d="M18.079 16.8333H74.9211V74.1667H18.079V16.8333Z" fill="#090909"/>
</g>
</svg>
